<?xml version="1.0" encoding="UTF-8" standalone="no"?>
<!-- Created with Inkscape (http://www.inkscape.org/) -->

<svg
   version="1.1"
   id="svg1"
   width="568.10168"
   height="331.55923"
   viewBox="0 0 568.10168 331.55923"
   xmlns="http://www.w3.org/2000/svg"
   xmlns:svg="http://www.w3.org/2000/svg">
  <defs
     id="defs1" />
  <g
     id="g1"
     transform="translate(-34.243957,-9.2473803)">
    <path
       style="fill:#000000"
       d="m 301.7478,338.57142 c -3.38968,-1.86835 -4.14921,-2.05311 -5.23811,-2.64718 -2.47027,-1.34771 -3.78246,-1.73878 -4.6642,-2.32875 -1.10487,-0.73927 -3.37234,-2.04448 -4.00365,-2.43017 -2.17807,-1.33065 -3.4277,-1.99501 -5.61258,-3.2961 -0.83292,-0.49601 -2.00666,-1.37779 -2.54174,-1.65524 -3.30017,-1.71119 -12.176,-7.17489 -15.56108,-5.06087 -1.76137,1.09999 -1.90081,0.28054 -4.47638,-1.01214 -1.14683,-0.5756 -1.40654,-0.78536 -2.57682,-1.71575 -0.60256,-0.47904 -0.78851,-0.78467 -1.9285,-1.64013 -2.6557,-2.83815 -3.89008,-4.28782 -4.75088,-5.17605 -2.40508,-2.4817 -4.7586,-4.45727 -5.36257,-4.93282 -1.10709,-0.87171 -2.00059,-2.07456 -3.53377,-3.42098 -3.23003,-2.77885 -4.75728,-6.09115 -8.57882,-10.1766 -3.25528,-3.39982 -5.53748,-6.78891 -5.9187,-7.19745 -1.00191,-1.07372 -1.55505,-1.22965 -3.24797,-3.52092 -1.87683,-2.54018 -2.7851,-3.23238 -8.82288,-3.56299 -2.98603,-0.1635 -5.65415,-0.53371 -5.92915,-0.82267 -0.275,-0.28897 -3.875,-1.3094 -8,-2.26762 -4.125,-0.95822 -11.80509,-3.12593 -17.223,-4.0516 -4.25362,-0.72675 -9.25472,-2.11592 -11.87799,-2.69771 -1.32405,-0.29366 -2.81267,-1.22082 -8.89901,-3.35051 -5.225,-1.82829 -10.83389,-3.76795 -12.38498,-4.49224 -3.34227,-1.56069 -5.97735,-2.8514 -4.44179,-2.31242 l -2.20629,-0.66419 c -4.12948,-1.24316 -6.33443,-2.23401 -8.71723,-3.41924 -2.35712,-1.17247 -4.02947,-1.88479 -5.21522,-2.84488 -0.51424,-0.41639 -1.05267,-1.11968 -2.02127,-1.55821 -1.69772,-0.76864 -3.31059,-1.79025 -5.50737,-3.1596 -2.19678,-1.36935 -4.03023,-2.12018 -4.65213,-2.42073 -0.71371,-0.34493 -1.70887,-1.31148 -2.02104,-1.51132 -1.31789,-0.84365 -8.44602,-4.93522 -9.4562,-5.57819 -0.68643,-0.43691 -1.13809,-0.64368 -1.50644,-1.09675 -0.40445,-0.49748 -2.39791,-2.68213 -6.468665,-5.8999 -4.070756,-3.21778 -6.64534,-5.79486 -7.109104,-6.10673 -0.613769,-0.41273 -1.287795,-0.77293 -2.391185,-1.22715 -1.183629,-0.48725 -1.869522,-0.99672 -2.288513,-1.24898 -1.678397,-1.0105 -16.405822,-7.2932 -18.187118,-8.45369 -1.895777,-1.23507 -2.512303,-1.8921 -3.975585,-3.04984 -0.986764,-0.78073 -1.832055,-1.34436 -3.563364,-2.3848 -1.839452,-1.10543 -2.448972,-1.35086 -3.101935,-1.67567 -0.628088,-0.31244 -1.220458,-0.47896 -1.730843,-0.88604 -1.783668,-1.42263 -2.346864,-1.71415 -4.655101,-4.06492 -0.472435,-0.48114 -2.078121,-2.803 -5.299141,-5.87534 -3.221019,-3.07233 -5.088349,-4.90297 -5.671852,-5.42116 -0.387783,-0.34438 -0.567381,-0.88258 -1.540873,-1.53713 -1.507398,-1.01353 -1.774459,-1.1551 -2.31214,-1.74128 -0.601873,-0.65616 -1.239234,-1.12463 -1.398831,-2.01905 -0.186093,-1.04291 0.246089,-1.69877 0.405651,-3.16631 0.324877,-2.98799 3.846126,-5.55655 7.150598,-4.40076 1.213305,0.42438 0.983645,-0.0889 -0.73204,-1.63612 -2.552377,-2.30172 -3.058228,-4.27842 -1.664552,-6.50449 0.430422,-0.6875 0.375169,-0.95618 0.7288,-1.4326 0.368215,-0.49607 0.492452,-0.62811 1.171521,-1.2256 0.695838,-0.61225 1.050921,-0.94853 1.444505,-1.27155 0.464368,-0.38112 0.878657,-0.83217 2.784016,-1.73632 1.905358,-0.90415 4.132413,-2.59779 4.94901,-3.76365 0.816598,-1.16586 3.046346,-3.06487 4.954997,-4.22003 7.663529,-4.63815 17.058516,-13.02333 17.880234,-13.84195 0.465809,-0.46405 1.080113,-0.73309 1.819946,-1.38405 0.931858,-0.62699 2.260693,-1.22429 4.390492,-2.87429 16.176002,-12.53188 15.998235,-13.93629 16.820658,-14.58517 1.366483,-1.07813 5.616294,-6.42691 6.618694,-7.46007 0.522,-0.53801 1.87455,-1.86851 2.37891,-2.34429 2.41376,-2.27703 5.48733,-5.86739 6.86517,-7.67086 1.52534,-1.99654 4.94529,-5.40841 8.38013,-8.583749 0.29844,-0.275895 1.1535,-0.615445 1.77239,-0.922168 1.29018,-0.639425 2.11771,-0.80036 4.44106,-2.267026 C 130.05933,92.2 132.20314,91 132.5,91 c 0.29686,0 2.36015,-1.149171 4.58509,-2.553712 6.79021,-4.286473 10.07816,-5.937495 18.65654,-9.36826 4.5329,-1.812848 6.23861,-2.852624 7.33839,-3.376322 0.51343,-0.244486 1.83429,-0.651104 2.88891,-1.082405 1.9781,-0.808968 2.44537,-0.801364 4.59983,-1.508046 0.97054,-0.318347 2.25279,-0.444129 3.42755,-0.803527 2.13777,-0.654012 7.04289,-1.080657 17.00369,-3.752371 0.825,-0.221284 2.38188,0.05506 3.0426,-0.478846 1.91618,-1.548419 2.48518,-7.745585 3.48889,-9.820031 0.96618,-1.996884 1.35262,-2.328617 2.4215,-3.967842 0.9737,-1.493249 1.50065,-2.259335 1.76353,-1.532407 0.24987,0.690926 0.29594,0.506041 0.90105,1.066684 0.52775,0.488973 0.80872,0.924562 1.25504,1.465138 0.85822,1.039475 2.76278,2.644785 3.51255,1.553253 C 208.41994,55.334854 216.7136,41.057628 217.5,39.429 c 0.9988,-2.068506 1.00232,-2.068598 2.92361,-0.07639 1.15538,1.19803 0.75145,1.24623 1.50127,2.733831 0.44671,0.886227 0.90975,1.789191 1.52748,1.653566 2.86117,-0.628181 8.09848,-10.20937 8.90698,-11.983744 0.30203,-0.66285 0.66193,-1.170193 1.2227,-1.640003 1.13399,-0.950068 1.08673,-1.110393 2.04674,-1.894583 2.1234,-1.734515 2.23392,-2.291994 2.66747,-1.615776 0.42078,0.656312 0.72549,1.482508 0.7236,1.849686 -0.004,0.874237 0.25781,0.889759 -0.0555,1.853462 -1.77839,5.469812 5.27957,6.69305 9.55981,0.86013 3.72296,-6.412581 1.79403,-5.958414 3.68493,-8.165359 0.41857,-0.488529 0.8315,-2.61497 1.57176,-3.244058 0.81693,-0.694236 2.04736,-3.545915 3.10117,-3.230498 1.06924,0.320038 0.84486,1.951375 2.51365,4.054508 0.61898,0.78008 1.6232,1.973408 2.58086,3.166228 0.65229,0.812469 -0.57816,-0.2375 0.45499,1 2.23521,2.677322 3.90965,2.902091 5.69604,0.587379 1.20019,-1.555143 2.0387,-2.203615 3.79277,-4.75257 1.27446,-1.852001 2.51477,-3.15037 3.41186,-4.13071 0.604,-0.660047 0.82326,-1.113089 1.54982,-2.071367 1.20753,-1.592643 2.05182,-1.400346 3.02306,-2.246737 1.60128,-1.395428 2.22551,-2.7012382 2.97536,-0.651581 0.6289,1.719053 0.5445,3.573216 1.0161,4.579536 0.87462,1.866308 1.3351,4.452087 4.86863,4.721333 3.32533,0.253381 9.8574,-7.791898 11.67343,-10.157385 0.84953,-1.106571 2.04075,-1.6356823 2.74635,-0.515017 0.70226,1.115364 0.57922,1.569779 0.68783,2.440372 0.24048,1.927597 0.20776,2.139061 0.35576,2.785101 0.26785,1.169174 0.64212,1.602085 1.36059,2.591778 0.61623,0.848858 1.40631,1.519489 1.75251,2.083618 0.34371,0.560053 0.79598,0.875954 2.44009,1.596698 1.08594,0.476051 0.52513,0.244436 1.29588,0.421218 0.77978,0.178855 0.40865,0.217634 1.38833,0.593572 0.8633,0.331281 1.50836,1.113627 1.43345,1.738546 -0.49706,4.146951 1.08071,5.490098 8.29251,7.05936 1.98638,0.43223 2.59428,1.091735 2.31984,2.516797 -0.20455,1.062098 0.50591,2.371142 1.25022,3.245573 0.97853,1.149599 2.0767,1.896332 3.88892,2.871788 1.53617,0.826868 2.84087,2.346872 3.36112,3.191146 0.9647,1.565516 2.43331,2.553349 4.97122,5.246172 0.71956,0.763481 1.17689,0.938794 1.97682,2.294085 1.317,1.182876 2.01163,2.008268 5.66135,4.831118 1.10907,0.857801 3.64935,2.56287 4.40046,3.208723 1.67023,1.43616 6.31884,4.847395 8.47683,5.847799 0.50605,0.234593 0.8546,0.873213 1.62694,1.656472 1.12941,1.145377 1.78277,1.702573 2.72747,2.349478 1.50065,1.027606 2.03415,1.774142 2.67453,2.52551 0.43258,0.507565 1.48599,1.045955 2.26613,1.483865 1.86373,1.046149 2.91039,1.986233 3.66514,2.374865 1.37174,0.70633 2.68367,2.246987 4.17254,3.244662 0.66836,0.447862 1.33835,0.935262 2.32365,1.604842 1.17323,0.797294 3.04965,1.564729 5.59236,3.20022 1.37623,0.885204 2.43772,1.488747 3.65477,2.192933 0.96942,0.560908 1.08009,1.390616 2.3322,1.990799 1.21131,0.58063 1.95185,0.951694 3.00781,2 1.11451,1.106426 1.86062,1.329449 4.2156,2.052561 1.49535,0.459159 2.25612,0.67118 3.24219,1.366631 0.88433,0.6237 1.67489,0.778597 2.25,0.911103 1.24846,0.287648 3.391,-0.06746 4.5,-0.616631 4.11492,-2.037704 3.00054,-1.169187 11.75,-6.013655 4.11766,-2.279898 7.29489,-5 7.72251,-5 0.42762,0 0.33091,-0.696199 0.77749,-1.122445 1.71967,-1.641385 6.61799,-3.059457 10.5318,-0.841547 2.27906,1.159381 2.24096,0.892659 3.73277,2.384465 -0.31654,0.03425 0.0471,0.579844 2.9419,2.15031 0.43033,0.07266 2.25384,2.043276 3.25956,2.65801 0.60517,0.369895 1.82929,0.900938 2.4276,1.354129 0.56254,0.426104 2.10357,0.832685 4.01349,2.128792 1.90992,1.296108 2.55891,1.239705 3.22586,1.56444 0.85971,0.418581 1.23457,0.776756 2.14615,1.438818 0.48701,0.353707 1.02582,0.598764 1.72087,1.152687 0.42396,0.337879 0.7875,1.152166 1.75,1.355633 3.51824,1.568146 0.66494,0.563072 2.01914,0.967507 0.86807,0.259249 1.06112,0.379583 1.79911,0.919631 1.26078,0.922627 1.70053,1.97172 2.81002,2.59955 1.2545,0.70989 2.29401,1.17092 3.91489,1.56779 1.34605,0.32958 2.4761,0.68146 3.74727,0.95682 0.87546,0.18964 1.5378,0.9109 3.04686,3.09619 0.91099,1.31921 1.04028,2.2678 1.53721,2.98309 1.00552,1.44736 0.92703,0.163 3.13795,1.65184 1.87702,1.26398 2.39224,1.70079 4.39805,4.75937 0.32317,0.49278 0.69298,0.99422 1.08954,1.75644 0.31772,0.61067 0.0848,1.77144 -0.66179,3.06767 -0.98324,1.70708 -1.54979,2.79922 -2.68647,4.96765 -1.45135,2.76872 -1.91597,3.13046 -4.44788,5.05824 -1.45636,1.10887 -3.04222,2.24494 -4.07357,3.12203 -1.79236,1.52429 -2.94269,1.96283 -6.01113,3.30289 -0.75637,0.33032 -2.24328,0.9421 -3.29274,1.24626 -1.07375,0.31119 -3.40199,0.78036 -5.36964,0.91288 -1.96766,0.13251 -1.88938,0.394 -2.63112,0.51354 -1.1668,0.18803 -1.02097,0.20434 -2.0757,0.31144 -10.43889,1.05995 -4.64045,1.29062 2.3162,1.44222 3.29259,0.0717 4.17311,0.0288 5.87478,0.15373 1.48004,-0.21271 2.66176,-0.59774 3.32541,-0.60659 2.07001,-0.0276 4.96936,-0.51363 9.58249,-1.39705 0.30315,-0.058 4.71224,-0.93247 9.90112,-2.01548 12.84161,-2.68026 19.74834,-5.16994 21.56008,-5.51607 1.44695,-0.27643 3.43424,-0.8539 5.37505,-1.2874 1.90696,-0.63195 3.18324,-0.9174 5.70423,-1.57577 0.9184,-0.23984 4.11806,-0.46334 6.61584,-0.91575 3.33474,-0.604 11.16184,-1.95847 15.598,-2.7743 9.13894,-1.68069 19.79699,-2.59647 28.16412,-4.49717 1.66539,-0.37831 15.09589,-3.2289 14.07627,-2.95143 -2.4226,0.65928 2.95206,-1.18555 5.03934,-1.81822 2.05486,-0.62285 0.8113,-0.55389 3.19448,-1.45074 l 1.12948,0.71349 0.56285,2.40011 c 0.283,1.20678 0.27826,1.89823 0.27158,2.5574 -0.0132,1.30272 -0.0959,1.19417 0.0698,2.04301 0.0462,0.23658 0.68592,1.47461 0.85134,2.32415 0.55166,2.83306 0.68894,4.22355 -0.0849,6.10855 -0.63666,1.55077 -1.29892,2.03806 -1.78833,3.15715 -0.76243,1.92058 -1.07296,3.06106 -1.43886,4.01976 -0.6975,1.82758 -0.7209,1.91114 -1.43743,3.83348 -0.44614,1.19695 -1.21991,1.2691 -1.86294,3.6338 -0.67036,2.46519 -0.83645,2.06726 -1.70758,4.34092 -0.24344,0.63538 -1.09168,1.59751 -1.61569,2.10062 -1.05011,1.00823 -2.06258,1.26421 -3.14888,3.53598 -1.81399,6.6639 -1.62143,5.11868 -3.65907,6.89367 -1.77442,1.5457 -1.47794,2.27402 -1.79681,3.36933 -0.25622,0.88007 -0.54307,1.78533 -0.56978,2.16948 -0.0719,1.03399 -0.105,2.3292 0.8857,5.41219 1.68495,5.24339 1.56206,2.61936 2.84273,4.6912 0,0 0.25047,3.59956 0.83255,4.357 1.39242,1.81191 0.77961,2.01464 3.89793,5.75676 1.40551,1.68668 1.7972,2.9841 3.15275,7.55783 1.08612,3.66465 2.13661,3.6509 3.67845,4.91925 1.21175,0.99681 2.02049,1.79997 2.36259,2.27288 0.89167,1.2326 1.39192,2.01347 1.97604,3.11846 0.55111,1.04255 1.22022,1.4254 1.83026,2.27913 0.57836,0.8094 0.70492,1.12734 0.99821,1.88814 0.23256,0.60329 0.49306,0.43574 0.66321,1 0.21719,0.72025 0.28973,1.70102 -1.03597,3.02214 -2.13519,2.12781 -2.86684,2.22533 -13.47222,1.79579 -6.16793,-0.24982 -13.35192,-0.47482 -15.96442,-0.5 -2.6125,-0.0252 -4.1421,-0.49493 -4.75,-0.65219 -0.95478,-0.247 -3.0375,-0.90158 -6.75,-1.26236 -8.97302,-0.87199 -11.94581,-1.29184 -19.43602,-2.74496 -3.47269,-0.67371 -9.46398,-1.32888 -13.31398,-1.45593 -3.85,-0.12706 -12.85,-0.57829 -20,-1.00275 -16.22229,-0.96302 -17.29853,-1.11109 -20.05196,-0.84313 -0.94627,0.0921 -2.22996,-0.25084 -6.44804,0.0286 -7.17501,0.47526 -13.35576,3.58144 -15.71358,4.56932 -1.19404,0.50028 -3.38486,2.03823 -4.7274,2.81769 -2.92248,1.69675 -5.10446,1.5 2.95145,1.5 3.47343,0 6.65452,-0.3375 7.06909,-0.75 0.97204,-0.96716 2.00576,-0.14774 2.88612,1.80859 0.42145,0.93654 0.93293,1.38087 1.31832,2.26005 0.62094,1.41655 2.19124,4.20636 2.20003,4.84803 0.009,0.64166 1.27301,0.89971 1.26597,1.63357 -0.0158,1.64826 -0.29455,1.04237 -0.077,2.47164 l -0.33652,2.86406 c -0.36112,3.07354 -2.09886,3.9237 -2.83726,5.17348 -0.91032,1.54078 -0.47073,2.46754 -0.49406,3.85458 -0.0553,3.28435 0.25204,5.85374 -1.49095,8.66705 -0.66243,1.06922 -0.87257,1.76241 -1.50425,2.64301 -1.22392,0.89643 -0.94722,1.21945 -1.90232,1.8285 -0.5075,0.32361 -1.10209,0.38487 -1.74608,0.78285 -0.64395,0.39798 -0.12371,0.52052 -0.67289,0.7465 -1.25407,0.51603 -1.45682,0.98964 -1.94877,1.39289 -0.11781,0.0966 -0.47287,0.56264 -1.76292,1.39271 -0.92499,0.59517 -1.14452,1.05271 -1.61426,2.02152 -0.74964,1.54607 -1.40519,2.06917 -2.27444,2.7406 -1.07867,0.83319 -2.05715,1.21125 -2.70731,1.72155 -1.40564,1.10326 -1.60163,0.92157 -2.65013,1.65715 -1.1595,0.81345 -1.90792,1.30433 -2.38807,1.41428 -0.66796,0.15296 -1.91043,0.6122 -2.36208,0.8146 -1.98049,0.88754 -5.44119,1.55003 -13.41621,3.05314 -1.88383,0.35506 -2.43395,0.47767 -3.39432,0.68573 -1.46161,0.31665 -1.15103,-0.43629 -7.92019,0.0624 -7.1691,0.5281 -8.59767,0.53352 -9.27746,0.59518 -0.5638,0.0511 -1.4022,0.67647 -3.75241,1.66794 -2.12433,0.89618 -2.67729,1.36917 -3.20788,1.77391 -0.89577,0.6833 -1.66662,1.11127 -6.35834,2.68912 -1.04964,0.353 -1.14034,0.96801 -2.9533,1.42996 -0.17852,0 -1.76743,1.38114 -2.52642,2.11907 -3.26835,3.17763 -6.89441,4.02163 -10.49018,5.51408 -2.0806,0.99526 -1.16844,1.44884 -3.75073,0.47027 -0.96142,-0.36433 -1.37368,-0.18801 -3.38377,-0.33909 -1.31285,-0.0987 -3.48435,-0.80806 -4.07606,-1.02529 -1.72701,-0.63403 -5.04559,-1.68603 -7.64759,-1.30329 -0.64603,0.095 -1.14524,-0.85366 -1.81069,-0.85645 -6.82379,-0.0287 -7.35223,0.34737 -10.00602,-0.42729 -0.6295,-0.18376 -3.10184,-0.29854 -4.69507,-0.0949 -2.59305,0.33134 -3.68461,0.36674 -4.70326,0.27321 -0.80582,-0.074 -0.26273,-0.41047 -0.83867,-0.40614 -2.9704,0.0223 -5.36528,-1.07703 -7.77065,-1.61947 -0.93805,-0.21155 -1.37676,-2.49558 -3.20909,-2.49274 -7.20811,0.0112 -9.28292,0.24317 -11.10044,-1.6798 -1.78791,-1.89164 -1.57404,-2.59027 -2.96975,-2.14729 -2.71145,0.86058 -20.09487,0.89412 -25.61458,0.0494 -4.03395,-0.61733 -8.84185,-0.78817 -6.92985,-0.4937 1.07464,0.16551 -6.72924,-2.32895 -8.2578,0.1443 -1.61573,2.61431 6.81292,4.12762 18.54866,5.69549 1.74193,0.23272 2.68959,0.18533 3.92385,1.28134 0.58782,0.52198 1.38073,1.44202 1.72158,2.33028 0.32996,0.85986 1.32226,1.19298 1.99294,1.56338 2.12619,1.17423 4.03188,1.65927 6.71734,3.09364 0.4059,0.2168 0.66556,0.48748 0.13177,0.9774 -0.5585,0.5126 -0.008,0.62784 0.34131,1.59881 0.34484,0.95974 0.68039,1.44725 2.68718,4.32823 0.68989,0.99042 0.43962,1.44541 0.95159,1.68499 0.7674,0.3591 1.01491,0.95716 1.51623,1.75959 0.78931,1.26341 0.79165,1.94153 0.74297,3.35801 -0.0488,1.41988 -0.17949,2.86237 0.42461,6.23025 0.24904,1.38841 0.2993,2.22577 0.43825,3.68188 0.12483,1.3082 0.32596,2.41855 0.0609,4.09448 -0.34399,2.17456 -1.14317,1.62918 -1.57257,2.70444 -0.89893,2.25096 -1.39814,4.16717 -2.08112,6.23968 -1.12037,2.50578 -0.7838,0.0631 -1.75677,3.45271 -0.61866,2.56631 0.12639,2.10533 -1.62324,4.93409 -1.44575,2.33744 -1.94293,2.89752 -3.58851,4.51368 -1.36183,1.33748 -0.88031,2.42991 -7.24908,-1.08048 z"
       id="path1" />
  </g>
</svg>
